<?xml version="1.0" encoding="UTF-8"?>
<svg viewBox="0 0 160 160" xmlns="http://www.w3.org/2000/svg" width="1500" height="1500"><defs><filter id="sk5"><feTurbulence type="fractalNoise" baseFrequency="0.012 0.05" numOctaves="2" seed="41" result="n"/><feDisplacementMap in="SourceGraphic" in2="n" scale="2.6"/></filter></defs><g id="Background" filter="url(#sk5)"><rect x="0" y="0" width="160" height="160" fill="#c9a25a"/><polygon points="143.7789173799008,80 144.64887859729947,134.24685018701874 91.45094561914372,144.9415397072808 45.21096823867411,140.25637055674386 18.316455151912727,102.45097426872813 5.420289357036893,52.85520524577514 42.371872290261045,14.826171013041872 93.52212574972351,3.3122140730083487 140.267787618773,29.4293216372169" fill="#c9a25a" opacity="0.7"/></g><g id="Face" filter="url(#sk5)"><circle cx="80" cy="80" r="44.800000000000004" fill="#d9a877" stroke="#3a2f22" stroke-width="1.6"/></g><g id="Hair" filter="url(#sk5)"><path d="M 35.199999999999996 73.28 A 44.800000000000004 44.800000000000004 0 0 1 124.80000000000001 73.28 L 124.80000000000001 55.36 A 44.800000000000004 40.32000000000001 0 0 0 35.199999999999996 55.36 Z" fill="#4a4038" stroke="#3a2f22" stroke-width="1.4"/></g><g id="Eyes" filter="url(#sk5)"><circle cx="62.08" cy="77.76" r="10.752" fill="#fdfaf3" stroke="#3a2f22" stroke-width="1.3"/><circle cx="62.08" cy="77.76" r="3.5840000000000005" fill="#3a2f22"/><circle cx="97.92" cy="77.76" r="10.752" fill="#fdfaf3" stroke="#3a2f22" stroke-width="1.3"/><circle cx="97.92" cy="77.76" r="3.5840000000000005" fill="#3a2f22"/></g><g id="Nose" filter="url(#sk5)"><path d="M 80 80 Q 71.936 89.856 83.136 91.648" fill="none" stroke="#3a2f22" stroke-width="1.4"/></g><g id="Mouth" filter="url(#sk5)"><path d="M 71.03999999999999 102.4 Q 82.24 104.64 89.856 99.712" fill="none" stroke="#3a2f22" stroke-width="1.5"/></g></svg>