<?xml version="1.0" encoding="UTF-8"?>
<svg viewBox="0 0 160 160" xmlns="http://www.w3.org/2000/svg" width="1500" height="1500"><defs><filter id="sk3"><feTurbulence type="fractalNoise" baseFrequency="0.018 0.03" numOctaves="2" seed="21" result="n"/><feDisplacementMap in="SourceGraphic" in2="n" scale="2.9"/></filter></defs><g id="Background" filter="url(#sk3)"><rect x="0" y="0" width="160" height="160" fill="#c9a25a"/><polygon points="143.66154417738318,80 143.01845652293437,132.87876362575568 94.3145693022047,161.18195663925127 38.37708601947875,152.09300177333176 15.565452052315507,103.45225751135558 0.8313889684810221,51.18498209632819 39.59204984117295,10.011377295200745 92.52080308354132,8.990997105298547 143.10817694203513,27.045952003667765" fill="#c9a25a" opacity="0.7"/></g><g id="Face" filter="url(#sk3)"><circle cx="80" cy="80" r="44.800000000000004" fill="#b8815a" stroke="#3a2f22" stroke-width="1.6"/></g><g id="Hair" filter="url(#sk3)"><path d="M 35.199999999999996 73.28 A 44.800000000000004 44.800000000000004 0 0 1 124.80000000000001 73.28 L 124.80000000000001 55.36 A 44.800000000000004 40.32000000000001 0 0 0 35.199999999999996 55.36 Z" fill="#3a2f22" stroke="#3a2f22" stroke-width="1.4"/></g><g id="Eyes" filter="url(#sk3)"><circle cx="62.08" cy="77.76" r="10.752" fill="#fdfaf3" stroke="#3a2f22" stroke-width="1.3"/><circle cx="62.08" cy="77.76" r="3.5840000000000005" fill="#3a2f22"/><circle cx="97.92" cy="77.76" r="10.752" fill="#fdfaf3" stroke="#3a2f22" stroke-width="1.3"/><circle cx="97.92" cy="77.76" r="3.5840000000000005" fill="#3a2f22"/></g><g id="Nose" filter="url(#sk3)"><circle cx="80" cy="89.856" r="1.5680000000000003" fill="none" stroke="#3a2f22" stroke-width="1.3"/></g><g id="Mouth" filter="url(#sk3)"><path d="M 68.8 102.4 Q 80 113.152 91.2 102.4" fill="none" stroke="#3a2f22" stroke-width="1.5"/></g></svg>