<?xml version="1.0" encoding="UTF-8"?>
<svg viewBox="0 0 160 160" xmlns="http://www.w3.org/2000/svg" width="1500" height="1500"><defs><filter id="sk2"><feTurbulence type="fractalNoise" baseFrequency="0.03 0.015" numOctaves="3" seed="14" result="n"/><feDisplacementMap in="SourceGraphic" in2="n" scale="3.8"/></filter></defs><g id="Background" filter="url(#sk2)"><rect x="0" y="0" width="160" height="160" fill="#c9a898"/><polygon points="150.6495879147202,80 144.6319854378135,134.23267514312465 91.15476659179603,143.26182497413186 45.15334787305446,140.3561719575478 15.873696369773512,103.34006575491917 2.777382897216853,51.89326596245078 42.55663180880244,15.146183886337539 94.44384648422728,-1.9151239713475263 142.95127424312216,27.17760900045635" fill="#c9a898" opacity="0.7"/></g><g id="Face" filter="url(#sk2)"><circle cx="80" cy="80" r="44.800000000000004" fill="#e8c9a0" stroke="#3a2f22" stroke-width="1.6"/></g><g id="Hair" filter="url(#sk2)"><path d="M 35.199999999999996 75.52 A 44.800000000000004 44.800000000000004 0 0 1 118.08000000000001 57.599999999999994 L 100.16 53.12 L 35.199999999999996 55.36 Z" fill="#8a6d4a" stroke="#3a2f22" stroke-width="1.4"/></g><g id="Eyes" filter="url(#sk2)"><circle cx="62.08" cy="77.76" r="10.752" fill="#fdfaf3" stroke="#3a2f22" stroke-width="1.3"/><circle cx="62.08" cy="77.76" r="3.5840000000000005" fill="#3a2f22"/><circle cx="97.92" cy="77.76" r="10.752" fill="#fdfaf3" stroke="#3a2f22" stroke-width="1.3"/><circle cx="97.92" cy="77.76" r="3.5840000000000005" fill="#3a2f22"/></g><g id="Nose" filter="url(#sk2)"><path d="M 80 80 Q 71.936 89.856 83.136 91.648" fill="none" stroke="#3a2f22" stroke-width="1.4"/></g><g id="Mouth" filter="url(#sk2)"><path d="M 68.8 102.4 Q 80 113.152 91.2 102.4" fill="none" stroke="#3a2f22" stroke-width="1.5"/></g></svg>