<?xml version="1.0" encoding="UTF-8"?>
<svg viewBox="0 0 160 160" xmlns="http://www.w3.org/2000/svg" width="1500" height="1500"><defs><filter id="sk2"><feTurbulence type="fractalNoise" baseFrequency="0.03 0.015" numOctaves="3" seed="14" result="n"/><feDisplacementMap in="SourceGraphic" in2="n" scale="3.8"/></filter></defs><g id="Background" filter="url(#sk2)"><rect x="0" y="0" width="160" height="160" fill="#b8c4a0"/><polygon points="150.87417225010694,80 140.8073700289958,131.02344176419075 94.55041467836243,162.51950223329544 46.63217109963299,137.79477499370083 9.397970189765147,105.69703732970059 1.8365432808183613,51.5508283468633 45.677657260671225,20.551958540689874 91.10159764201184,17.039711124147253 130.33614266283905,37.762961256724786" fill="#b8c4a0" opacity="0.7"/></g><g id="Face" filter="url(#sk2)"><circle cx="80" cy="80" r="44.800000000000004" fill="#d9a877" stroke="#3a2f22" stroke-width="1.6"/></g><g id="Hair" filter="url(#sk2)"><path d="M 35.199999999999996 73.28 A 44.800000000000004 44.800000000000004 0 0 1 124.80000000000001 73.28 L 124.80000000000001 55.36 A 44.800000000000004 40.32000000000001 0 0 0 35.199999999999996 55.36 Z" fill="#4a4038" stroke="#3a2f22" stroke-width="1.4"/></g><g id="Eyes" filter="url(#sk2)"><circle cx="62.08" cy="77.76" r="13.440000000000001" fill="#fdfaf3" stroke="#3a2f22" stroke-width="1.3"/><circle cx="62.08" cy="77.76" r="5.376" fill="#3a2f22"/><circle cx="97.92" cy="77.76" r="13.440000000000001" fill="#fdfaf3" stroke="#3a2f22" stroke-width="1.3"/><circle cx="97.92" cy="77.76" r="5.376" fill="#3a2f22"/></g><g id="Nose" filter="url(#sk2)"><circle cx="80" cy="89.856" r="1.5680000000000003" fill="none" stroke="#3a2f22" stroke-width="1.3"/></g><g id="Mouth" filter="url(#sk2)"><path d="M 68.8 102.4 Q 80 113.152 91.2 102.4" fill="none" stroke="#3a2f22" stroke-width="1.5"/></g><g id="Extra" filter="url(#sk2)"><circle cx="92.544" cy="100.16000000000001" r="1.12" fill="#7a3b2e"/></g></svg>