<?xml version="1.0" encoding="UTF-8"?>
<svg viewBox="0 0 160 160" xmlns="http://www.w3.org/2000/svg" width="1500" height="1500"><defs><filter id="sk4"><feTurbulence type="fractalNoise" baseFrequency="0.025 0.025" numOctaves="3" seed="33" result="n"/><feDisplacementMap in="SourceGraphic" in2="n" scale="3.4"/></filter></defs><g id="Background" filter="url(#sk4)"><rect x="0" y="0" width="160" height="160" fill="#c9a898"/><polygon points="146.596886709854,80 137.12075507268128,127.93000451405462 91.98977691596687,147.99740384479497 46.43779934104533,138.13143675513118 18.50993876537806,102.38055199260849 11.751714679401644,55.1596556035952 44.68924178089943,18.839972710737555 93.98957295553376,0.6611892330656559 133.24728625429668,35.32022174282857" fill="#c9a898" opacity="0.7"/></g><g id="Face" filter="url(#sk4)"><circle cx="80" cy="80" r="44.800000000000004" fill="#b8815a" stroke="#3a2f22" stroke-width="1.6"/></g><g id="Hair" filter="url(#sk4)"><path d="M 35.199999999999996 75.52 A 44.800000000000004 44.800000000000004 0 0 1 118.08000000000001 57.599999999999994 L 100.16 53.12 L 35.199999999999996 55.36 Z" fill="#6b4a30" stroke="#3a2f22" stroke-width="1.4"/></g><g id="Eyes" filter="url(#sk4)"><rect x="49.535999999999994" y="67.00800000000001" width="25.088000000000005" height="19.712000000000003" fill="none" stroke="#3a2f22" stroke-width="1.6"/><rect x="85.376" y="67.00800000000001" width="25.088000000000005" height="19.712000000000003" fill="none" stroke="#3a2f22" stroke-width="1.6"/><line x1="74.624" y1="77.76" x2="85.376" y2="77.76" stroke="#3a2f22" stroke-width="1.6"/></g><g id="Nose" filter="url(#sk4)"><line x1="80" y1="82.24" x2="77.76" y2="89.856" stroke="#3a2f22" stroke-width="1.4"/></g><g id="Mouth" filter="url(#sk4)"><path d="M 70.144 108.224 Q 80 98.816 89.856 108.224" fill="none" stroke="#3a2f22" stroke-width="1.5"/></g><g id="Extra" filter="url(#sk4)"><circle cx="92.544" cy="100.16000000000001" r="1.12" fill="#7a3b2e"/></g></svg>