<?xml version="1.0" encoding="UTF-8"?>
<svg viewBox="0 0 160 160" xmlns="http://www.w3.org/2000/svg" width="1500" height="1500"><defs><filter id="sk0"><feTurbulence type="fractalNoise" baseFrequency="0.015 0.04" numOctaves="2" seed="2" result="n"/><feDisplacementMap in="SourceGraphic" in2="n" scale="3.2"/></filter></defs><g id="Background" filter="url(#sk0)"><rect x="0" y="0" width="160" height="160" fill="#b8c4a0"/><polygon points="164.1178411205113,80 144.6119321071007,134.21584840071966 91.76520325516971,146.72378332515106 47.1996474935487,136.81187704734285 17.287532875590834,102.82547135068273 5.761090158305478,52.97924659325098 41.83674360226836,13.899300936850878 92.44936858309178,9.396122288991506 137.8527323770872,31.455793599788215" fill="#b8c4a0" opacity="0.7"/></g><g id="Face" filter="url(#sk0)"><circle cx="80" cy="80" r="44.800000000000004" fill="#e8c9a0" stroke="#3a2f22" stroke-width="1.6"/></g><g id="Hair" filter="url(#sk0)"><path d="M 35.199999999999996 73.28 A 44.800000000000004 44.800000000000004 0 0 1 124.80000000000001 73.28 L 124.80000000000001 55.36 A 44.800000000000004 40.32000000000001 0 0 0 35.199999999999996 55.36 Z" fill="#6b4a30" stroke="#3a2f22" stroke-width="1.4"/></g><g id="Eyes" filter="url(#sk0)"><circle cx="62.08" cy="77.76" r="10.752" fill="#fdfaf3" stroke="#3a2f22" stroke-width="1.3"/><circle cx="62.08" cy="77.76" r="3.5840000000000005" fill="#3a2f22"/><circle cx="97.92" cy="77.76" r="10.752" fill="#fdfaf3" stroke="#3a2f22" stroke-width="1.3"/><circle cx="97.92" cy="77.76" r="3.5840000000000005" fill="#3a2f22"/></g><g id="Nose" filter="url(#sk0)"><circle cx="80" cy="89.856" r="1.5680000000000003" fill="none" stroke="#3a2f22" stroke-width="1.3"/></g><g id="Mouth" filter="url(#sk0)"><path d="M 68.8 102.4 Q 80 113.152 91.2 102.4" fill="none" stroke="#3a2f22" stroke-width="1.5"/></g><g id="Extra" filter="url(#sk0)"><circle cx="92.544" cy="100.16000000000001" r="1.12" fill="#7a3b2e"/></g></svg>