<?xml version="1.0" encoding="UTF-8"?>
<svg viewBox="0 0 160 160" xmlns="http://www.w3.org/2000/svg" width="1500" height="1500"><defs><filter id="sk5"><feTurbulence type="fractalNoise" baseFrequency="0.012 0.05" numOctaves="2" seed="41" result="n"/><feDisplacementMap in="SourceGraphic" in2="n" scale="2.6"/></filter></defs><g id="Background" filter="url(#sk5)"><rect x="0" y="0" width="160" height="160" fill="#b8c4a0"/><polygon points="145.4537891829014,80 139.56258831037476,129.97894588319963 91.02399047712294,142.52015677254602 40.12456200096757,149.06628458838685 16.94961670540293,102.94846277830835 14.39947445945775,56.12336135102285 48.37805674865839,25.229187654616616 94.00509824340332,0.573140950226616 139.94350482942974,29.70142720615197" fill="#b8c4a0" opacity="0.7"/></g><g id="Face" filter="url(#sk5)"><circle cx="80" cy="80" r="44.800000000000004" fill="#e8c9a0" stroke="#3a2f22" stroke-width="1.6"/></g><g id="Hair" filter="url(#sk5)"><path d="M 35.199999999999996 73.28 A 44.800000000000004 44.800000000000004 0 0 1 124.80000000000001 73.28 L 124.80000000000001 55.36 A 44.800000000000004 40.32000000000001 0 0 0 35.199999999999996 55.36 Z" fill="#3a2f22" stroke="#3a2f22" stroke-width="1.4"/></g><g id="Eyes" filter="url(#sk5)"><circle cx="62.08" cy="77.76" r="10.752" fill="#fdfaf3" stroke="#3a2f22" stroke-width="1.3"/><circle cx="62.08" cy="77.76" r="3.5840000000000005" fill="#3a2f22"/><circle cx="97.92" cy="77.76" r="10.752" fill="#fdfaf3" stroke="#3a2f22" stroke-width="1.3"/><circle cx="97.92" cy="77.76" r="3.5840000000000005" fill="#3a2f22"/></g><g id="Nose" filter="url(#sk5)"><line x1="80" y1="82.24" x2="77.76" y2="89.856" stroke="#3a2f22" stroke-width="1.4"/></g><g id="Mouth" filter="url(#sk5)"><line x1="71.03999999999999" y1="102.4" x2="88.96000000000001" y2="102.4" stroke="#3a2f22" stroke-width="1.5"/></g></svg>