<?xml version="1.0" encoding="UTF-8"?>
<svg viewBox="0 0 160 160" xmlns="http://www.w3.org/2000/svg" width="1500" height="1500"><defs><filter id="sk1"><feTurbulence type="fractalNoise" baseFrequency="0.02 0.02" numOctaves="2" seed="7" result="n"/><feDisplacementMap in="SourceGraphic" in2="n" scale="2.4"/></filter></defs><g id="Background" filter="url(#sk1)"><rect x="0" y="0" width="160" height="160" fill="#c9a25a"/><polygon points="152.72142518006265,80 142.37009993837313,132.33472785477898 94.66178743511071,163.15112852384274 43.23263155817987,143.68295020183706 1.021244383914123,108.74591618363993 9.963228675229175,54.50869993367472 40.30042060017582,11.23831144038985 94.3852849789782,-1.5830051712989786 132.51343696994977,35.93599440666378" fill="#c9a25a" opacity="0.7"/></g><g id="Face" filter="url(#sk1)"><circle cx="80" cy="80" r="44.800000000000004" fill="#c99566" stroke="#3a2f22" stroke-width="1.6"/></g><g id="Hair" filter="url(#sk1)"><path d="M 35.199999999999996 75.52 A 44.800000000000004 44.800000000000004 0 0 1 118.08000000000001 57.599999999999994 L 100.16 53.12 L 35.199999999999996 55.36 Z" fill="#4a4038" stroke="#3a2f22" stroke-width="1.4"/></g><g id="Eyes" filter="url(#sk1)"><circle cx="62.08" cy="77.76" r="13.440000000000001" fill="#fdfaf3" stroke="#3a2f22" stroke-width="1.3"/><circle cx="62.08" cy="77.76" r="5.376" fill="#3a2f22"/><circle cx="97.92" cy="77.76" r="13.440000000000001" fill="#fdfaf3" stroke="#3a2f22" stroke-width="1.3"/><circle cx="97.92" cy="77.76" r="5.376" fill="#3a2f22"/></g><g id="Nose" filter="url(#sk1)"><line x1="80" y1="82.24" x2="77.76" y2="89.856" stroke="#3a2f22" stroke-width="1.4"/></g><g id="Mouth" filter="url(#sk1)"><path d="M 71.03999999999999 102.4 Q 82.24 104.64 89.856 99.712" fill="none" stroke="#3a2f22" stroke-width="1.5"/></g><g id="Extra" filter="url(#sk1)"><circle cx="58.40913585275412" cy="88.6658023736477" r="1.12" fill="#7a3b2e"/><circle cx="80.91911326348782" cy="97.04852504229547" r="1.12" fill="#7a3b2e"/><circle cx="84.33034173697233" cy="94.18852606078983" r="1.12" fill="#7a3b2e"/><circle cx="92.93264292925596" cy="96.87219688272477" r="1.12" fill="#7a3b2e"/><circle cx="64.39579674899578" cy="93.1593486533165" r="1.12" fill="#7a3b2e"/></g></svg>