<?xml version="1.0" encoding="UTF-8"?>
<svg viewBox="0 0 160 160" xmlns="http://www.w3.org/2000/svg" width="1500" height="1500"><defs><filter id="sk5"><feTurbulence type="fractalNoise" baseFrequency="0.012 0.05" numOctaves="2" seed="41" result="n"/><feDisplacementMap in="SourceGraphic" in2="n" scale="2.6"/></filter></defs><g id="Background" filter="url(#sk5)"><rect x="0" y="0" width="160" height="160" fill="#c9a25a"/><polygon points="146.51257296323777,80 144.83395219126015,134.40214537145178 93.96390242127849,159.19322593271238 41.147957214675856,147.29371208202127 14.350325002797902,103.89452758823171 9.213643725045898,54.2358733237541 44.232792283929854,18.04937899089699 92.44935200461109,9.396216310227672 136.2028833400324,32.840181318279086" fill="#c9a25a" opacity="0.7"/></g><g id="Face" filter="url(#sk5)"><circle cx="80" cy="80" r="44.800000000000004" fill="#d9a877" stroke="#3a2f22" stroke-width="1.6"/></g><g id="Hair" filter="url(#sk5)"><path d="M 35.199999999999996 75.52 A 44.800000000000004 44.800000000000004 0 0 1 118.08000000000001 57.599999999999994 L 100.16 53.12 L 35.199999999999996 55.36 Z" fill="#c9b896" stroke="#3a2f22" stroke-width="1.4"/></g><g id="Eyes" filter="url(#sk5)"><circle cx="62.08" cy="77.76" r="10.752" fill="#fdfaf3" stroke="#3a2f22" stroke-width="1.3"/><circle cx="62.08" cy="77.76" r="3.5840000000000005" fill="#3a2f22"/><circle cx="97.92" cy="77.76" r="10.752" fill="#fdfaf3" stroke="#3a2f22" stroke-width="1.3"/><circle cx="97.92" cy="77.76" r="3.5840000000000005" fill="#3a2f22"/></g><g id="Nose" filter="url(#sk5)"><circle cx="80" cy="89.856" r="1.5680000000000003" fill="none" stroke="#3a2f22" stroke-width="1.3"/></g><g id="Mouth" filter="url(#sk5)"><line x1="71.03999999999999" y1="102.4" x2="88.96000000000001" y2="102.4" stroke="#3a2f22" stroke-width="1.5"/></g><g id="Extra" filter="url(#sk5)"><circle cx="92.544" cy="100.16000000000001" r="1.12" fill="#7a3b2e"/></g></svg>